<?xml version="1.0" encoding="UTF-8" standalone="no"?>
<!-- Created with Inkscape (http://www.inkscape.org/) -->

<svg
   xmlns:dc="http://purl.org/dc/elements/1.1/"
   xmlns:cc="http://creativecommons.org/ns#"
   xmlns:rdf="http://www.w3.org/1999/02/22-rdf-syntax-ns#"
   xmlns:svg="http://www.w3.org/2000/svg"
   xmlns="http://www.w3.org/2000/svg"
   xmlns:sodipodi="http://sodipodi.sourceforge.net/DTD/sodipodi-0.dtd"
   xmlns:inkscape="http://www.inkscape.org/namespaces/inkscape"
   width="492mm"
   height="101mm"
   viewBox="0 0 492 101"
   version="1.1"
   id="svg8"
   inkscape:version="0.92.4 (5da689c313, 2019-01-14)"
   sodipodi:docname="logo.svg"
   inkscape:export-filename="/home/jarvist/logo.svg.png"
   inkscape:export-xdpi="25.400002"
   inkscape:export-ydpi="25.400002">
  <defs
     id="defs2" />
  <sodipodi:namedview
     id="base"
     pagecolor="#ffffff"
     bordercolor="#666666"
     borderopacity="1.0"
     inkscape:pageopacity="0.0"
     inkscape:pageshadow="2"
     inkscape:zoom="1.1293191"
     inkscape:cx="906.29831"
     inkscape:cy="190.86614"
     inkscape:document-units="mm"
     inkscape:current-layer="layer1"
     showgrid="false"
     inkscape:window-width="2560"
     inkscape:window-height="1395"
     inkscape:window-x="1439"
     inkscape:window-y="512"
     inkscape:window-maximized="1"
     showguides="false" />
  <metadata
     id="metadata5">
    <rdf:RDF>
      <cc:Work
         rdf:about="">
        <dc:format>image/svg+xml</dc:format>
        <dc:type
           rdf:resource="http://purl.org/dc/dcmitype/StillImage" />
        <dc:title></dc:title>
      </cc:Work>
    </rdf:RDF>
  </metadata>
  <g
     inkscape:label="Layer 1"
     inkscape:groupmode="layer"
     id="layer1"
     transform="translate(0,-196)">
    <path
       inkscape:connector-curvature="0"
       id="path4639"
       style="font-style:normal;font-variant:normal;font-weight:normal;font-stretch:normal;font-size:266.66665649px;line-height:1.25;font-family:'Latin Modern Math';-inkscape-font-specification:'Latin Modern Math';letter-spacing:0px;word-spacing:0px;fill:#000000;fill-opacity:1;stroke:none;stroke-width:0.26458332"
       d="M 91.322682,264.77389 52.658239,246.5 91.322682,228.22612 c 1.69333,-0.77612 0.49389,-3.31611 -1.27,-2.54 l -40.992776,19.40277 c -1.199444,0.56445 -1.199444,2.25778 0,2.82222 l 40.992776,19.40278 c 1.76389,0.77611 2.96333,-1.76389 1.27,-2.54 z" />
    <path
       inkscape:connector-curvature="0"
       id="path4641"
       style="font-style:normal;font-variant:normal;font-weight:normal;font-stretch:normal;font-size:266.66665649px;line-height:1.25;font-family:'Latin Modern Math';-inkscape-font-specification:'Latin Modern Math';letter-spacing:0px;word-spacing:0px;fill:#000000;fill-opacity:1;stroke:none;stroke-width:0.26458332"
       d="m 192.2847,280.36666 v -67.73332 c 0,-0.77611 -0.635,-1.41112 -1.41111,-1.41112 -0.77611,0 -1.41111,0.635 -1.41111,1.41112 v 67.73332 c 0,0.77612 0.635,1.41112 1.41111,1.41112 0.77611,0 1.41111,-0.635 1.41111,-1.41112 z" />
    <path
       inkscape:connector-curvature="0"
       id="path4643"
       style="font-style:normal;font-variant:normal;font-weight:normal;font-stretch:normal;font-size:266.66665649px;line-height:1.25;font-family:'Latin Modern Math';-inkscape-font-specification:'Latin Modern Math';letter-spacing:0px;word-spacing:0px;fill:#000000;fill-opacity:1;stroke:none;stroke-width:0.26458332"
       d="m 302.24125,280.36666 v -67.73332 c 0,-0.77611 -0.635,-1.41112 -1.41111,-1.41112 -0.77611,0 -1.41111,0.635 -1.41111,1.41112 v 67.73332 c 0,0.77612 0.635,1.41112 1.41111,1.41112 0.77611,0 1.41111,-0.635 1.41111,-1.41112 z" />
    <path
       inkscape:connector-curvature="0"
       id="path4645"
       style="font-style:normal;font-variant:normal;font-weight:normal;font-stretch:normal;font-size:266.66665649px;line-height:1.25;font-family:'Latin Modern Math';-inkscape-font-specification:'Latin Modern Math';letter-spacing:0px;word-spacing:0px;fill:#000000;fill-opacity:1;stroke:none;stroke-width:0.26458332"
       d="m 438.93826,247.91111 c 1.19946,-0.56444 1.19946,-2.25777 0,-2.82222 l -40.99277,-19.40277 c -1.7639,-0.77611 -2.96333,1.76388 -1.27,2.54 L 435.33993,246.5 396.67549,264.77389 c -1.69333,0.77611 -0.4939,3.31611 1.27,2.54 z" />
    <g
       id="g4637"
       transform="matrix(1.8256372,0,0,1.8256372,678.47908,-97.691688)">
      <rect
         transform="rotate(-45)"
         style="fill:#e6e6e6;stroke:#000000;stroke-width:2;stroke-miterlimit:4;stroke-dasharray:none"
         y="-50.999737"
         x="-317.62476"
         height="33.608433"
         width="33.608433"
         id="rect68" />
      <g
         transform="matrix(0.15843167,-0.15843167,0.15843167,0.15843167,-202.31631,121.11781)"
         id="g4590"
         style="stroke-width:17.85266304;stroke-miterlimit:4;stroke-dasharray:none">
        <path
           style="fill:none;stroke:#000000;stroke-width:17.85266304;stroke-linecap:round;stroke-linejoin:miter;stroke-miterlimit:4;stroke-dasharray:none;stroke-opacity:1"
           d="m -413.74519,57.363092 c 24.19048,0 24.19048,0 24.19048,0 v 0"
           id="path4578"
           inkscape:connector-curvature="0" />
        <path
           inkscape:connector-curvature="0"
           id="path4580"
           d="m -413.74519,152.61309 c 24.19048,0 24.19048,0 24.19048,0 v 0"
           style="fill:none;stroke:#000000;stroke-width:17.85266304;stroke-linecap:round;stroke-linejoin:miter;stroke-miterlimit:4;stroke-dasharray:none;stroke-opacity:1" />
        <path
           style="fill:none;stroke:#000000;stroke-width:17.85266304;stroke-linecap:round;stroke-linejoin:miter;stroke-miterlimit:4;stroke-dasharray:none;stroke-opacity:1"
           d="m -413.74519,89.113096 c 24.19048,0 24.19048,0 24.19048,0 v 0"
           id="path4582"
           inkscape:connector-curvature="0" />
        <path
           style="fill:none;stroke:#000000;stroke-width:17.85266304;stroke-linecap:round;stroke-linejoin:miter;stroke-miterlimit:4;stroke-dasharray:none;stroke-opacity:1"
           d="m -413.74519,120.86309 c 24.19048,0 24.19048,0 24.19048,0 v 0"
           id="path4584"
           inkscape:connector-curvature="0" />
      </g>
      <g
         transform="matrix(0.15843167,-0.15843167,0.15843167,0.15843167,-177.1054,95.906898)"
         id="g4600"
         style="stroke-width:17.85266304;stroke-miterlimit:4;stroke-dasharray:none">
        <path
           inkscape:connector-curvature="0"
           id="path4592"
           d="m -413.74519,57.363092 c 24.19048,0 24.19048,0 24.19048,0 v 0"
           style="fill:none;stroke:#000000;stroke-width:17.85266304;stroke-linecap:round;stroke-linejoin:miter;stroke-miterlimit:4;stroke-dasharray:none;stroke-opacity:1" />
        <path
           style="fill:none;stroke:#000000;stroke-width:17.85266304;stroke-linecap:round;stroke-linejoin:miter;stroke-miterlimit:4;stroke-dasharray:none;stroke-opacity:1"
           d="m -413.74519,152.61309 c 24.19048,0 24.19048,0 24.19048,0 v 0"
           id="path4594"
           inkscape:connector-curvature="0" />
        <path
           inkscape:connector-curvature="0"
           id="path4596"
           d="m -413.74519,89.113096 c 24.19048,0 24.19048,0 24.19048,0 v 0"
           style="fill:none;stroke:#000000;stroke-width:17.85266304;stroke-linecap:round;stroke-linejoin:miter;stroke-miterlimit:4;stroke-dasharray:none;stroke-opacity:1" />
        <path
           inkscape:connector-curvature="0"
           id="path4598"
           d="m -413.74519,120.86309 c 24.19048,0 24.19048,0 24.19048,0 v 0"
           style="fill:none;stroke:#000000;stroke-width:17.85266304;stroke-linecap:round;stroke-linejoin:miter;stroke-miterlimit:4;stroke-dasharray:none;stroke-opacity:1" />
      </g>
    </g>
    <g
       aria-label="Ψ"
       style="font-style:normal;font-weight:normal;font-size:10.58333302px;line-height:1.25;font-family:sans-serif;letter-spacing:0px;word-spacing:0px;fill:#000000;fill-opacity:1;stroke:none;stroke-width:0.26458332"
       id="text4654"
       transform="matrix(1.1135243,0,0,1.1135243,-15.472863,-23.310774)">
      <path
         d="m 174.43935,220.97802 c 0,-1.16416 -0.84667,-1.16416 -2.54,-1.16416 h -4.02167 c -4.1275,0 -9.31333,0.74083 -9.41916,16.08667 -0.10584,11.64166 -3.59834,22.86 -15.02834,25.61166 v -46.99 c 0,-3.59833 0,-5.08 10.05417,-5.08 h 3.4925 v -3.28083 c -3.81,0.3175 -13.54667,0.3175 -17.88583,0.3175 -4.33917,0 -14.18167,0 -17.99167,-0.3175 v 3.28083 h 3.4925 c 10.05417,0 10.05417,1.37583 10.05417,5.08 v 46.99 c -13.86417,-3.70416 -14.39334,-20.0025 -14.39334,-26.88166 -0.10583,-12.80584 -4.7625,-14.81667 -9.41916,-14.81667 h -3.91584 c -1.5875,0 -2.64583,0 -2.64583,1.16416 0,0.52917 0.3175,1.05834 0.9525,1.16417 3.4925,0.42333 6.13833,1.905 6.24417,14.39334 0,2.43416 0.3175,10.795 5.3975,17.88583 4.1275,5.715 10.58333,8.78417 17.78,9.73667 v 5.92666 c 0,3.59834 0,5.08 -10.05417,5.08 h -3.4925 v 3.28084 c 3.81,-0.3175 13.54667,-0.3175 17.88583,-0.3175 4.33917,0 14.18167,0 17.99167,0.3175 v -3.28084 h -3.4925 c -10.05417,0 -10.05417,-1.37583 -10.05417,-5.08 v -5.92666 c 7.62,-0.9525 14.07584,-4.1275 18.20334,-9.63084 5.50333,-7.51416 5.60916,-15.875 5.60916,-20.53166 0,-1.69334 0.10584,-11.11251 5.82084,-11.85334 0.635,-0.10583 1.37583,-0.21167 1.37583,-1.16417 z"
         style="font-style:normal;font-variant:normal;font-weight:normal;font-stretch:normal;font-size:105.83333588px;font-family:'Latin Modern Math';-inkscape-font-specification:'Latin Modern Math';stroke-width:0.26458332"
         id="path4656"
         inkscape:connector-curvature="0" />
    </g>
    <g
       id="g4674"
       transform="translate(3.1750001)">
      <rect
         y="211.39178"
         x="310.69827"
         height="68.599258"
         width="68.599258"
         id="rect4667"
         style="fill:#deaa87;stroke:#000000;stroke-width:2.74931192;stroke-linecap:round;stroke-miterlimit:4;stroke-dasharray:none" />
      <text
         id="text4661"
         y="271.89395"
         x="314.07596"
         style="font-style:normal;font-weight:normal;font-size:13.68370056px;line-height:1.25;font-family:sans-serif;letter-spacing:0px;word-spacing:0px;fill:#000000;fill-opacity:1;stroke:none;stroke-width:0.34209251"
         xml:space="preserve"><tspan
           style="font-style:normal;font-variant:normal;font-weight:normal;font-stretch:normal;font-size:54.73480225px;font-family:'Latin Modern Math';-inkscape-font-specification:'Latin Modern Math';stroke-width:0.34209251"
           y="271.89395"
           x="314.07596"
           id="tspan4659"
           sodipodi:role="line">Si</tspan></text>
      <text
         id="text4665"
         y="226.75897"
         x="315.92328"
         style="font-style:normal;font-weight:normal;font-size:13.68370056px;line-height:1.25;font-family:sans-serif;letter-spacing:0px;word-spacing:0px;fill:#000000;fill-opacity:1;stroke:none;stroke-width:0.34209251"
         xml:space="preserve"><tspan
           style="font-style:normal;font-variant:normal;font-weight:normal;font-stretch:normal;font-family:'Latin Modern Math';-inkscape-font-specification:'Latin Modern Math';stroke-width:0.34209251"
           y="226.75897"
           x="315.92328"
           id="tspan4663"
           sodipodi:role="line">14</tspan></text>
    </g>
  </g>
</svg>
